<?xml version="1.0" encoding="UTF-8"?> <svg xmlns="http://www.w3.org/2000/svg" width="427" height="454" viewBox="0 0 427 454" fill="none"> <path fill-rule="evenodd" clip-rule="evenodd" d="M209.804 0.522006C256.203 -1.95729 308.312 10.8525 343.863 40.7707C378.457 69.8838 371.564 125.726 388.685 167.574C407.704 214.06 438.038 243.984 421.628 291.454C405.177 339.048 372.214 355.743 329.227 381.97C291.065 405.253 253.682 438.908 209.804 447.46C159.928 457.181 102.626 459.351 62.3169 428.412C22.2341 397.647 5.00233 341.811 0.833857 291.454C-2.70959 248.649 24.545 208.139 38.6639 167.574C52.3973 128.116 53.6622 81.326 83.9691 52.5679C116.375 21.8181 165.195 2.90571 209.804 0.522006Z" fill="#F1E0FF"></path> </svg> 