<?xml version="1.0" encoding="UTF-8"?> <svg xmlns="http://www.w3.org/2000/svg" width="3645" height="135" viewBox="0 0 3645 135" fill="none"> <path d="M364.8 29.9842C243.334 -8.74865 121.868 -8.74865 0.401367 29.9842V134.996H3644.39V29.9842C3522.92 68.7171 3401.45 68.7171 3279.99 29.9842C3158.52 -8.74865 3037.06 -8.74865 2915.59 29.9842C2794.12 68.7171 2672.66 68.7171 2551.19 29.9842C2429.73 -8.74865 2308.26 -8.74865 2186.79 29.9842C2065.33 68.7171 1943.86 68.7171 1822.39 29.9842C1700.93 -8.74865 1579.46 -8.74865 1458 29.9842C1336.53 68.7171 1215.06 68.7171 1093.6 29.9842C972.131 -8.74865 850.665 -8.74865 729.199 29.9842C607.732 68.7171 486.266 68.7171 364.8 29.9842Z" fill="#F8FAFF"></path> </svg> 