<?xml version="1.0" encoding="UTF-8"?> <svg xmlns="http://www.w3.org/2000/svg" width="78" height="24" viewBox="0 0 78 24" fill="none"> <rect x="0.857948" y="0.245605" width="76.8251" height="23.103" rx="11.5515" fill="#F8FAFF"></rect> <path d="M17.0538 9.13351H21.1255V14.2231H20.2348V9.94935H17.937V14.2231H17.0538V9.13351ZM24.733 14.3204C24.224 14.3204 23.7675 14.2057 23.3633 13.9761C22.9641 13.7416 22.6497 13.4223 22.4202 13.0181C22.1957 12.6139 22.0834 12.1648 22.0834 11.6708C22.0834 11.1669 22.1957 10.7153 22.4202 10.3161C22.6448 9.91692 22.9566 9.60505 23.3558 9.38051C23.76 9.15098 24.219 9.03621 24.733 9.03621C25.2469 9.03621 25.7035 9.15098 26.1027 9.38051C26.5069 9.60505 26.8212 9.91692 27.0458 10.3161C27.2703 10.7153 27.3826 11.1669 27.3826 11.6708C27.3826 12.1648 27.2703 12.6139 27.0458 13.0181C26.8212 13.4223 26.5069 13.7416 26.1027 13.9761C25.7035 14.2057 25.2469 14.3204 24.733 14.3204ZM24.733 13.5196C25.0823 13.5196 25.3892 13.4372 25.6536 13.2726C25.9181 13.1079 26.1227 12.8859 26.2674 12.6064C26.4121 12.327 26.4844 12.0151 26.4844 11.6708C26.4844 11.3216 26.4121 11.0072 26.2674 10.7278C26.1227 10.4483 25.9181 10.2313 25.6536 10.0766C25.3892 9.91692 25.0823 9.83708 24.733 9.83708C24.3837 9.83708 24.0768 9.91692 23.8124 10.0766C23.5529 10.2313 23.3508 10.4483 23.2061 10.7278C23.0614 11.0072 22.989 11.3216 22.989 11.6708C22.989 12.0151 23.0614 12.327 23.2061 12.6064C23.3508 12.8859 23.5554 13.1079 23.8199 13.2726C24.0843 13.4372 24.3887 13.5196 24.733 13.5196ZM29.5728 14.3055C29.1736 14.3055 28.8169 14.2506 28.5025 14.1408C28.1931 14.031 27.9112 13.8564 27.6567 13.6169L28.0684 12.9882C28.248 13.1478 28.4601 13.2776 28.7046 13.3774C28.9541 13.4722 29.226 13.5196 29.5204 13.5196C29.7949 13.5196 30.0244 13.4472 30.209 13.3025C30.3986 13.1528 30.4934 12.9582 30.4934 12.7187C30.4934 12.4792 30.4086 12.2946 30.239 12.1648C30.0743 12.0301 29.8498 11.9627 29.5653 11.9627H28.8842V11.2367H29.5354C29.7649 11.2367 29.9421 11.1719 30.0668 11.0421C30.1966 10.9124 30.2614 10.7452 30.2614 10.5406C30.2614 10.3211 30.1791 10.1489 30.0144 10.0242C29.8547 9.89945 29.6377 9.83708 29.3633 9.83708C28.9441 9.83708 28.5624 9.9743 28.2181 10.2487L27.8364 9.63499C28.3254 9.24079 28.8618 9.0437 29.4456 9.0437C29.7649 9.0437 30.0543 9.10607 30.3138 9.23081C30.5733 9.35057 30.7779 9.51773 30.9276 9.73229C31.0773 9.94187 31.1521 10.1789 31.1521 10.4433C31.1521 10.6928 31.0872 10.9174 30.9575 11.117C30.8278 11.3116 30.6631 11.4513 30.4635 11.5361C30.7479 11.6409 30.97 11.8031 31.1297 12.0226C31.2943 12.2372 31.3766 12.4967 31.3766 12.801C31.3766 13.0755 31.3018 13.3275 31.1521 13.557C31.0024 13.7865 30.7903 13.9687 30.5159 14.1034C30.2415 14.2381 29.9271 14.3055 29.5728 14.3055ZM35.2867 11.5586C35.5362 11.6683 35.7333 11.8355 35.878 12.0601C36.0227 12.2796 36.0951 12.5316 36.0951 12.816C36.0951 13.0954 36.0277 13.3424 35.893 13.557C35.7583 13.7666 35.5687 13.9312 35.3242 14.051C35.0846 14.1658 34.8102 14.2231 34.5008 14.2231H32.3303V9.13351H34.3586C34.653 9.13351 34.915 9.1909 35.1445 9.30566C35.379 9.41544 35.5612 9.57262 35.6909 9.7772C35.8256 9.9768 35.893 10.2063 35.893 10.4658C35.893 10.7003 35.8381 10.9124 35.7283 11.102C35.6235 11.2866 35.4763 11.4388 35.2867 11.5586ZM33.206 11.2442H34.2239C34.4734 11.2442 34.6655 11.1818 34.8002 11.0571C34.9349 10.9323 35.0023 10.7577 35.0023 10.5332C35.0023 10.3236 34.93 10.1589 34.7853 10.0392C34.6405 9.91941 34.4484 9.85953 34.2089 9.85953H33.206V11.2442ZM34.3586 13.4971C34.6131 13.4971 34.8177 13.4273 34.9724 13.2876C35.1271 13.1478 35.2044 12.9607 35.2044 12.7262C35.2044 12.4967 35.1296 12.312 34.9799 12.1723C34.8302 12.0326 34.6331 11.9627 34.3886 11.9627H33.206V13.4971H34.3586ZM39.4247 14.3204C38.9158 14.3204 38.4592 14.2057 38.055 13.9761C37.6558 13.7416 37.3415 13.4223 37.112 13.0181C36.8874 12.6139 36.7751 12.1648 36.7751 11.6708C36.7751 11.1669 36.8874 10.7153 37.112 10.3161C37.3365 9.91692 37.6484 9.60505 38.0476 9.38051C38.4517 9.15098 38.9108 9.03621 39.4247 9.03621C39.9387 9.03621 40.3953 9.15098 40.7945 9.38051C41.1986 9.60505 41.513 9.91692 41.7375 10.3161C41.9621 10.7153 42.0743 11.1669 42.0743 11.6708C42.0743 12.1648 41.9621 12.6139 41.7375 13.0181C41.513 13.4223 41.1986 13.7416 40.7945 13.9761C40.3953 14.2057 39.9387 14.3204 39.4247 14.3204ZM39.4247 13.5196C39.774 13.5196 40.0809 13.4372 40.3454 13.2726C40.6098 13.1079 40.8144 12.8859 40.9591 12.6064C41.1038 12.327 41.1762 12.0151 41.1762 11.6708C41.1762 11.3216 41.1038 11.0072 40.9591 10.7278C40.8144 10.4483 40.6098 10.2313 40.3454 10.0766C40.0809 9.91692 39.774 9.83708 39.4247 9.83708C39.0755 9.83708 38.7686 9.91692 38.5041 10.0766C38.2447 10.2313 38.0426 10.4483 37.8979 10.7278C37.7532 11.0072 37.6808 11.3216 37.6808 11.6708C37.6808 12.0151 37.7532 12.327 37.8979 12.6064C38.0426 12.8859 38.2471 13.1079 38.5116 13.2726C38.7761 13.4372 39.0804 13.5196 39.4247 13.5196ZM43.0384 9.13351H43.9216V11.2517H46.3991V9.13351H47.2823V14.2231H46.3991V12.0675H43.9216V14.2231H43.0384V9.13351ZM52.8913 9.10357V14.2231H52.0081V11.4837C52.0081 11.2442 52.0156 11.0022 52.0306 10.7577C51.9108 10.8924 51.7162 11.107 51.4468 11.4014L48.7897 14.2531H48.5277V9.13351H49.4109V11.8729C49.4109 12.1124 49.4034 12.352 49.3885 12.5915C49.598 12.342 49.7951 12.1199 49.9798 11.9253L52.6294 9.10357H52.8913ZM57.4198 9.94935H55.9827V14.2231H55.0995V9.94935H53.655V9.13351H57.4198V9.94935ZM60.249 11.0795C60.5583 11.0795 60.8378 11.1469 61.0873 11.2816C61.3417 11.4164 61.5413 11.6035 61.686 11.843C61.8357 12.0825 61.9106 12.352 61.9106 12.6513C61.9106 12.9507 61.8357 13.2202 61.686 13.4597C61.5413 13.6992 61.3417 13.8863 61.0873 14.0211C60.8378 14.1558 60.5583 14.2231 60.249 14.2231H58.1907V9.13351H59.0739V11.0795H60.249ZM60.1591 13.4597C60.4136 13.4597 60.6207 13.3873 60.7804 13.2426C60.945 13.0979 61.0274 12.9008 61.0274 12.6513C61.0274 12.4019 60.945 12.2048 60.7804 12.0601C60.6207 11.9153 60.4136 11.843 60.1591 11.843H59.0739V13.4597H60.1591Z" fill="#200952" fill-opacity="0.6"></path> </svg> 