<?xml version="1.0" encoding="UTF-8"?> <svg xmlns="http://www.w3.org/2000/svg" width="26" height="23" viewBox="0 0 26 23" fill="none"> <path d="M21.125 5.06336C21.8107 4.56052 21.5958 3.4856 20.7694 3.28513L20.1345 3.1311C20.0049 3.09967 19.8683 3.13907 19.7754 3.23472L19.4656 3.55372C15.9577 7.16478 11.9567 10.2615 7.58136 12.7517C7.39307 12.8589 7.34343 13.108 7.47625 13.2792L8.16323 14.1644C8.51728 14.6207 9.18308 14.683 9.61569 14.3005L14.8957 9.63138L21.125 5.06336Z" fill="white"></path> <path d="M23.5365 16.8159C23.8978 16.7521 24.131 16.3975 24.0465 16.0405L24.0328 15.9828C23.94 15.5904 23.5335 15.3594 23.1489 15.4804L19.083 16.7598C18.1744 17.0457 17.306 17.4464 16.4988 17.9522L15.4255 18.6248C14.4927 19.2093 13.4564 19.6095 12.3729 19.8037C12.2449 19.8266 12.1676 19.9581 12.2097 20.0811L12.4253 20.7104C12.5827 21.1699 13.1163 21.3766 13.5422 21.1429L17.6574 18.8848C19.491 17.8787 21.4769 17.1798 23.5365 16.8159Z" fill="white"></path> <path d="M6.73661 2.44002C6.99499 1.80725 6.42868 1.14767 5.76411 1.30735L5.49132 1.37289C5.36125 1.40414 5.25861 1.5039 5.22367 1.63303C4.74756 3.39272 4.05932 5.08803 3.1741 6.68164L1.95906 8.86902C1.74165 9.26042 1.94293 9.75245 2.37233 9.87925L2.46715 9.90725C2.81072 10.0087 3.17917 9.86259 3.35984 9.55325L4.92901 6.86662L6.73661 2.44002Z" fill="white"></path> </svg> 