<?xml version="1.0" encoding="UTF-8"?> <svg xmlns="http://www.w3.org/2000/svg" width="513" height="117" viewBox="0 0 513 117" fill="none"> <mask id="path-1-outside-1_89_11" maskUnits="userSpaceOnUse" x="-0.200684" y="0.701172" width="513" height="116" fill="black"> <rect fill="white" x="-0.200684" y="0.701172" width="513" height="116"></rect> <path fill-rule="evenodd" clip-rule="evenodd" d="M1.7998 13.0717L13.5417 1.70117L511.799 1.70129V115.406H13.5417L1.7998 104.036L13.5417 92.6653L1.7998 81.2948L13.5417 69.9243L1.7998 58.5538L13.5417 47.1832L1.7998 35.8127L13.5417 24.4422L1.7998 13.0717Z"></path> </mask> <path fill-rule="evenodd" clip-rule="evenodd" d="M1.7998 13.0717L13.5417 1.70117L511.799 1.70129V115.406H13.5417L1.7998 104.036L13.5417 92.6653L1.7998 81.2948L13.5417 69.9243L1.7998 58.5538L13.5417 47.1832L1.7998 35.8127L13.5417 24.4422L1.7998 13.0717Z" fill="#DDFFE9"></path> <path d="M13.5417 1.70117L13.1939 1.34198L13.3393 1.20117L13.5417 1.20117L13.5417 1.70117ZM1.7998 13.0717L1.45198 13.4309L1.08106 13.0717L1.45198 12.7125L1.7998 13.0717ZM511.799 1.70129L511.799 1.20129L512.299 1.20129V1.70129H511.799ZM511.799 115.406H512.299V115.906H511.799V115.406ZM13.5417 115.406V115.906H13.3393L13.1939 115.766L13.5417 115.406ZM1.7998 104.036L1.45198 104.395L1.08106 104.036L1.45198 103.677L1.7998 104.036ZM13.5417 92.6653L13.8895 92.3061L14.2604 92.6653L13.8895 93.0245L13.5417 92.6653ZM1.7998 81.2948L1.45198 81.654L1.08106 81.2948L1.45198 80.9356L1.7998 81.2948ZM13.5417 69.9243L13.8895 69.5651L14.2604 69.9243L13.8895 70.2835L13.5417 69.9243ZM1.7998 58.5538L1.45198 58.913L1.08106 58.5538L1.45198 58.1946L1.7998 58.5538ZM13.5417 47.1832L13.8895 46.8241L14.2604 47.1832L13.8895 47.5424L13.5417 47.1832ZM1.7998 35.8127L1.45198 36.1719L1.08106 35.8127L1.45198 35.4535L1.7998 35.8127ZM13.5417 24.4422L13.8895 24.083L14.2604 24.4422L13.8895 24.8014L13.5417 24.4422ZM13.5417 1.20117L15.0425 1.20117L15.0425 2.20117L13.5417 2.20117L13.5417 1.20117ZM18.044 1.20117L21.0456 1.20117L21.0456 2.20117L18.044 2.20117L18.044 1.20117ZM24.0471 1.20117L27.0487 1.20118L27.0487 2.20118L24.0471 2.20117L24.0471 1.20117ZM30.0502 1.20118L33.0518 1.20118L33.0518 2.20118L30.0502 2.20118L30.0502 1.20118ZM36.0533 1.20118L39.0549 1.20118L39.0549 2.20118L36.0533 2.20118L36.0533 1.20118ZM42.0564 1.20118L45.058 1.20118L45.058 2.20118L42.0564 2.20118L42.0564 1.20118ZM48.0595 1.20118L51.0611 1.20118L51.0611 2.20118L48.0595 2.20118L48.0595 1.20118ZM54.0626 1.20118L57.0642 1.20118L57.0642 2.20118L54.0626 2.20118L54.0626 1.20118ZM60.0657 1.20118L63.0673 1.20118L63.0673 2.20118L60.0657 2.20118L60.0657 1.20118ZM66.0689 1.20118L69.0704 1.20119L69.0704 2.20119L66.0689 2.20118L66.0689 1.20118ZM72.072 1.20119L75.0735 1.20119L75.0735 2.20119L72.072 2.20119L72.072 1.20119ZM78.0751 1.20119L81.0766 1.20119L81.0766 2.20119L78.0751 2.20119L78.0751 1.20119ZM84.0782 1.20119L87.0797 1.20119L87.0797 2.20119L84.0782 2.20119L84.0782 1.20119ZM90.0812 1.20119L93.0828 1.20119L93.0828 2.20119L90.0812 2.20119L90.0812 1.20119ZM96.0843 1.20119L99.0859 1.20119L99.0859 2.20119L96.0843 2.20119L96.0843 1.20119ZM102.087 1.20119L105.089 1.20119L105.089 2.20119L102.087 2.20119L102.087 1.20119ZM108.091 1.2012L111.092 1.2012L111.092 2.2012L108.091 2.2012L108.091 1.2012ZM114.094 1.2012L117.095 1.2012L117.095 2.2012L114.094 2.2012L114.094 1.2012ZM120.097 1.2012L123.098 1.2012L123.098 2.2012L120.097 2.2012L120.097 1.2012ZM126.1 1.2012L129.101 1.2012L129.101 2.2012L126.1 2.2012L126.1 1.2012ZM132.103 1.2012L135.104 1.2012L135.104 2.2012L132.103 2.2012L132.103 1.2012ZM138.106 1.2012L141.108 1.2012L141.108 2.2012L138.106 2.2012L138.106 1.2012ZM144.109 1.2012L147.111 1.2012L147.111 2.2012L144.109 2.2012L144.109 1.2012ZM150.112 1.20121L153.114 1.20121L153.114 2.20121L150.112 2.20121L150.112 1.20121ZM156.115 1.20121L159.117 1.20121L159.117 2.20121L156.115 2.20121L156.115 1.20121ZM162.118 1.20121L165.12 1.20121L165.12 2.20121L162.118 2.20121L162.118 1.20121ZM168.122 1.20121L171.123 1.20121L171.123 2.20121L168.122 2.20121L168.122 1.20121ZM174.125 1.20121L177.126 1.20121L177.126 2.20121L174.125 2.20121L174.125 1.20121ZM180.128 1.20121L183.129 1.20121L183.129 2.20121L180.128 2.20121L180.128 1.20121ZM186.131 1.20121L189.132 1.20121L189.132 2.20121L186.131 2.20121L186.131 1.20121ZM192.134 1.20122L195.136 1.20122L195.136 2.20122L192.134 2.20122L192.134 1.20122ZM198.137 1.20122L201.139 1.20122L201.139 2.20122L198.137 2.20122L198.137 1.20122ZM204.14 1.20122L207.142 1.20122L207.142 2.20122L204.14 2.20122L204.14 1.20122ZM210.143 1.20122L213.145 1.20122L213.145 2.20122L210.143 2.20122L210.143 1.20122ZM216.146 1.20122L219.148 1.20122L219.148 2.20122L216.146 2.20122L216.146 1.20122ZM222.15 1.20122L225.151 1.20122L225.151 2.20122L222.15 2.20122L222.15 1.20122ZM228.153 1.20122L231.154 1.20123L231.154 2.20123L228.153 2.20122L228.153 1.20122ZM234.156 1.20123L237.157 1.20123L237.157 2.20123L234.156 2.20123L234.156 1.20123ZM240.159 1.20123L243.16 1.20123L243.16 2.20123L240.159 2.20123L240.159 1.20123ZM246.162 1.20123L249.164 1.20123L249.164 2.20123L246.162 2.20123L246.162 1.20123ZM252.165 1.20123L255.167 1.20123L255.167 2.20123L252.165 2.20123L252.165 1.20123ZM258.168 1.20123L261.17 1.20123L261.17 2.20123L258.168 2.20123L258.168 1.20123ZM264.171 1.20123L267.173 1.20123L267.173 2.20123L264.171 2.20123L264.171 1.20123ZM270.175 1.20123L273.176 1.20124L273.176 2.20124L270.175 2.20123L270.175 1.20123ZM276.178 1.20124L279.179 1.20124L279.179 2.20124L276.178 2.20124L276.178 1.20124ZM282.181 1.20124L285.182 1.20124L285.182 2.20124L282.181 2.20124L282.181 1.20124ZM288.184 1.20124L291.185 1.20124L291.185 2.20124L288.184 2.20124L288.184 1.20124ZM294.187 1.20124L297.188 1.20124L297.188 2.20124L294.187 2.20124L294.187 1.20124ZM300.19 1.20124L303.192 1.20124L303.192 2.20124L300.19 2.20124L300.19 1.20124ZM306.193 1.20124L309.195 1.20124L309.195 2.20124L306.193 2.20124L306.193 1.20124ZM312.196 1.20125L315.198 1.20125L315.198 2.20125L312.196 2.20125L312.196 1.20125ZM318.199 1.20125L321.201 1.20125L321.201 2.20125L318.199 2.20125L318.199 1.20125ZM324.203 1.20125L327.204 1.20125L327.204 2.20125L324.203 2.20125L324.203 1.20125ZM330.206 1.20125L333.207 1.20125L333.207 2.20125L330.206 2.20125L330.206 1.20125ZM336.209 1.20125L339.21 1.20125L339.21 2.20125L336.209 2.20125L336.209 1.20125ZM342.212 1.20125L345.213 1.20125L345.213 2.20125L342.212 2.20125L342.212 1.20125ZM348.215 1.20125L351.217 1.20125L351.217 2.20125L348.215 2.20125L348.215 1.20125ZM354.218 1.20126L357.22 1.20126L357.22 2.20126L354.218 2.20126L354.218 1.20126ZM360.221 1.20126L363.223 1.20126L363.223 2.20126L360.221 2.20126L360.221 1.20126ZM366.224 1.20126L369.226 1.20126L369.226 2.20126L366.224 2.20126L366.224 1.20126ZM372.227 1.20126L375.229 1.20126L375.229 2.20126L372.227 2.20126L372.227 1.20126ZM378.231 1.20126L381.232 1.20126L381.232 2.20126L378.231 2.20126L378.231 1.20126ZM384.234 1.20126L387.235 1.20126L387.235 2.20126L384.234 2.20126L384.234 1.20126ZM390.237 1.20126L393.238 1.20126L393.238 2.20126L390.237 2.20126L390.237 1.20126ZM396.24 1.20127L399.241 1.20127L399.241 2.20127L396.24 2.20127L396.24 1.20127ZM402.243 1.20127L405.245 1.20127L405.245 2.20127L402.243 2.20127L402.243 1.20127ZM408.246 1.20127L411.248 1.20127L411.248 2.20127L408.246 2.20127L408.246 1.20127ZM414.249 1.20127L417.251 1.20127L417.251 2.20127L414.249 2.20127L414.249 1.20127ZM420.252 1.20127L423.254 1.20127L423.254 2.20127L420.252 2.20127L420.252 1.20127ZM426.255 1.20127L429.257 1.20127L429.257 2.20127L426.255 2.20127L426.255 1.20127ZM432.259 1.20127L435.26 1.20128L435.26 2.20128L432.259 2.20127L432.259 1.20127ZM438.262 1.20128L441.263 1.20128L441.263 2.20128L438.262 2.20128L438.262 1.20128ZM444.265 1.20128L447.266 1.20128L447.266 2.20128L444.265 2.20128L444.265 1.20128ZM450.268 1.20128L453.269 1.20128L453.269 2.20128L450.268 2.20128L450.268 1.20128ZM456.271 1.20128L459.273 1.20128L459.273 2.20128L456.271 2.20128L456.271 1.20128ZM462.274 1.20128L465.276 1.20128L465.276 2.20128L462.274 2.20128L462.274 1.20128ZM468.277 1.20128L471.279 1.20128L471.279 2.20128L468.277 2.20128L468.277 1.20128ZM474.28 1.20128L477.282 1.20129L477.282 2.20129L474.28 2.20128L474.28 1.20128ZM480.283 1.20129L483.285 1.20129L483.285 2.20129L480.283 2.20129L480.283 1.20129ZM486.287 1.20129L489.288 1.20129L489.288 2.20129L486.287 2.20129L486.287 1.20129ZM492.29 1.20129L495.291 1.20129L495.291 2.20129L492.29 2.20129L492.29 1.20129ZM498.293 1.20129L501.294 1.20129L501.294 2.20129L498.293 2.20129L498.293 1.20129ZM504.296 1.20129L507.297 1.20129L507.297 2.20129L504.296 2.20129L504.296 1.20129ZM510.299 1.20129L511.799 1.20129L511.799 2.20129L510.299 2.20129L510.299 1.20129ZM512.299 1.70129V3.19741H511.299V1.70129H512.299ZM512.299 6.18965V9.18189H511.299V6.18965H512.299ZM512.299 12.1741V15.1664H511.299V12.1741H512.299ZM512.299 18.1586V21.1508H511.299V18.1586H512.299ZM512.299 24.1431V27.1353H511.299V24.1431H512.299ZM512.299 30.1276V33.1198H511.299V30.1276H512.299ZM512.299 36.112V39.1043H511.299V36.112H512.299ZM512.299 42.0965V45.0887H511.299V42.0965H512.299ZM512.299 48.081V51.0732H511.299V48.081H512.299ZM512.299 54.0655V57.0577H511.299V54.0655H512.299ZM512.299 60.0499V63.0422H511.299V60.0499H512.299ZM512.299 66.0344V69.0266H511.299V66.0344H512.299ZM512.299 72.0189V75.0111H511.299V72.0189H512.299ZM512.299 78.0034V80.9956H511.299V78.0034H512.299ZM512.299 83.9879V86.9801H511.299V83.9879H512.299ZM512.299 89.9723V92.9646H511.299V89.9723H512.299ZM512.299 95.9568V98.9491H511.299V95.9568H512.299ZM512.299 101.941V104.934H511.299V101.941H512.299ZM512.299 107.926V110.918H511.299V107.926H512.299ZM512.299 113.91V115.406H511.299V113.91H512.299ZM511.799 115.906H510.299V114.906H511.799V115.906ZM507.297 115.906H504.295V114.906H507.297V115.906ZM501.294 115.906H498.292V114.906H501.294V115.906ZM495.291 115.906H492.289V114.906H495.291V115.906ZM489.288 115.906H486.286V114.906H489.288V115.906ZM483.285 115.906H480.283V114.906H483.285V115.906ZM477.281 115.906H474.28V114.906H477.281V115.906ZM471.278 115.906H468.277V114.906H471.278V115.906ZM465.275 115.906H462.274V114.906H465.275V115.906ZM459.272 115.906H456.271V114.906H459.272V115.906ZM453.269 115.906H450.267V114.906H453.269V115.906ZM447.266 115.906H444.264V114.906H447.266V115.906ZM441.263 115.906H438.261V114.906H441.263V115.906ZM435.26 115.906H432.258V114.906H435.26V115.906ZM429.257 115.906H426.255V114.906H429.257V115.906ZM423.254 115.906H420.252V114.906H423.254V115.906ZM417.25 115.906H414.249V114.906H417.25V115.906ZM411.247 115.906H408.246V114.906H411.247V115.906ZM405.244 115.906H402.243V114.906H405.244V115.906ZM399.241 115.906H396.24V114.906H399.241V115.906ZM393.238 115.906H390.237V114.906H393.238V115.906ZM387.235 115.906H384.233V114.906H387.235V115.906ZM381.232 115.906H378.23V114.906H381.232V115.906ZM375.229 115.906H372.227V114.906H375.229V115.906ZM369.226 115.906H366.224V114.906H369.226V115.906ZM363.223 115.906H360.221V114.906H363.223V115.906ZM357.219 115.906H354.218V114.906H357.219V115.906ZM351.216 115.906H348.215V114.906H351.216V115.906ZM345.213 115.906H342.212V114.906H345.213V115.906ZM339.21 115.906H336.209V114.906H339.21V115.906ZM333.207 115.906H330.205V114.906H333.207V115.906ZM327.204 115.906H324.202V114.906H327.204V115.906ZM321.201 115.906H318.199V114.906H321.201V115.906ZM315.198 115.906H312.196V114.906H315.198V115.906ZM309.195 115.906H306.193V114.906H309.195V115.906ZM303.191 115.906H300.19V114.906H303.191V115.906ZM297.188 115.906H294.187V114.906H297.188V115.906ZM291.185 115.906H288.184V114.906H291.185V115.906ZM285.182 115.906H282.181V114.906H285.182V115.906ZM279.179 115.906H276.177V114.906H279.179V115.906ZM273.176 115.906H270.174V114.906H273.176V115.906ZM267.173 115.906H264.171V114.906H267.173V115.906ZM261.17 115.906H258.168V114.906H261.17V115.906ZM255.167 115.906H252.165V114.906H255.167V115.906ZM249.163 115.906H246.162V114.906H249.163V115.906ZM243.16 115.906H240.159V114.906H243.16V115.906ZM237.157 115.906H234.156V114.906H237.157V115.906ZM231.154 115.906H228.153V114.906H231.154V115.906ZM225.151 115.906H222.149V114.906H225.151V115.906ZM219.148 115.906H216.146V114.906H219.148V115.906ZM213.145 115.906H210.143V114.906H213.145V115.906ZM207.142 115.906H204.14V114.906H207.142V115.906ZM201.138 115.906H198.137V114.906H201.138V115.906ZM195.135 115.906H192.134V114.906H195.135V115.906ZM189.132 115.906H186.131V114.906H189.132V115.906ZM183.129 115.906H180.128V114.906H183.129V115.906ZM177.126 115.906H174.124V114.906H177.126V115.906ZM171.123 115.906H168.121V114.906H171.123V115.906ZM165.12 115.906H162.118V114.906H165.12V115.906ZM159.117 115.906H156.115V114.906H159.117V115.906ZM153.114 115.906H150.112V114.906H153.114V115.906ZM147.11 115.906H144.109V114.906H147.11V115.906ZM141.107 115.906H138.106V114.906H141.107V115.906ZM135.104 115.906H132.103V114.906H135.104V115.906ZM129.101 115.906H126.1V114.906H129.101V115.906ZM123.098 115.906H120.096V114.906H123.098V115.906ZM117.095 115.906H114.093V114.906H117.095V115.906ZM111.092 115.906H108.09V114.906H111.092V115.906ZM105.089 115.906H102.087V114.906H105.089V115.906ZM99.0856 115.906H96.084V114.906H99.0856V115.906ZM93.0825 115.906H90.0809V114.906H93.0825V115.906ZM87.0793 115.906H84.0778V114.906H87.0793V115.906ZM81.0762 115.906H78.0747V114.906H81.0762V115.906ZM75.0731 115.906H72.0716V114.906H75.0731V115.906ZM69.07 115.906H66.0684V114.906H69.07V115.906ZM63.0669 115.906H60.0653V114.906H63.0669V115.906ZM57.0638 115.906H54.0622V114.906H57.0638V115.906ZM51.0607 115.906H48.0591V114.906H51.0607V115.906ZM45.0576 115.906H42.056V114.906H45.0576V115.906ZM39.0545 115.906H36.0529V114.906H39.0545V115.906ZM33.0513 115.906H30.0498V114.906H33.0513V115.906ZM27.0482 115.906H24.0467V114.906H27.0482V115.906ZM21.0451 115.906H18.0436V114.906H21.0451V115.906ZM15.042 115.906H13.5417V114.906H15.042V115.906ZM13.1939 115.766L12.2154 114.818L12.911 114.1L13.8895 115.047L13.1939 115.766ZM10.2584 112.923L8.30141 111.028L8.99706 110.309L10.954 112.205L10.2584 112.923ZM6.34443 109.133L4.38745 107.238L5.0831 106.519L7.04008 108.414L6.34443 109.133ZM2.43047 105.343L1.45198 104.395L2.14763 103.677L3.12612 104.624L2.43047 105.343ZM1.45198 103.677L2.43047 102.729L3.12612 103.447L2.14763 104.395L1.45198 103.677ZM4.38745 100.834L6.34443 98.9389L7.04008 99.6573L5.0831 101.552L4.38745 100.834ZM8.30141 97.0438L10.2584 95.1488L10.954 95.8671L8.99706 97.7622L8.30141 97.0438ZM12.2154 93.2537L13.1939 92.3061L13.8895 93.0245L12.911 93.972L12.2154 93.2537ZM13.1939 93.0245L12.2154 92.077L12.911 91.3586L13.8895 92.3061L13.1939 93.0245ZM10.2584 90.1819L8.30141 88.2868L8.99706 87.5684L10.954 89.4635L10.2584 90.1819ZM6.34443 86.3917L4.38745 84.4966L5.0831 83.7782L7.04008 85.6733L6.34443 86.3917ZM2.43047 82.6015L1.45198 81.654L2.14763 80.9356L3.12612 81.8832L2.43047 82.6015ZM1.45198 80.9356L2.43047 79.9881L3.12612 80.7064L2.14763 81.654L1.45198 80.9356ZM4.38745 78.093L6.34443 76.1979L7.04008 76.9163L5.0831 78.8114L4.38745 78.093ZM8.30141 74.3028L10.2584 72.4077L10.954 73.1261L8.99706 75.0212L8.30141 74.3028ZM12.2154 70.5126L13.1939 69.5651L13.8895 70.2835L12.911 71.231L12.2154 70.5126ZM13.1939 70.2835L12.2154 69.3359L12.911 68.6175L13.8895 69.5651L13.1939 70.2835ZM10.2584 67.4408L8.30141 65.5458L8.99706 64.8274L10.954 66.7225L10.2584 67.4408ZM6.34443 63.6507L4.38745 61.7556L5.0831 61.0372L7.04008 62.9323L6.34443 63.6507ZM2.43047 59.8605L1.45198 58.913L2.14763 58.1946L3.12612 59.1421L2.43047 59.8605ZM1.45198 58.1946L2.43047 57.247L3.12612 57.9654L2.14763 58.913L1.45198 58.1946ZM4.38745 55.3519L6.34443 53.4569L7.04008 54.1752L5.0831 56.0703L4.38745 55.3519ZM8.30141 51.5618L10.2584 49.6667L10.954 50.3851L8.99706 52.2801L8.30141 51.5618ZM12.2154 47.7716L13.1939 46.8241L13.8895 47.5424L12.911 48.49L12.2154 47.7716ZM13.1939 47.5424L12.2154 46.5949L12.911 45.8765L13.8895 46.8241L13.1939 47.5424ZM10.2584 44.6998L8.30141 42.8047L8.99706 42.0863L10.954 43.9814L10.2584 44.6998ZM6.34443 40.9096L4.38745 39.0145L5.0831 38.2962L7.04008 40.1913L6.34443 40.9096ZM2.43047 37.1195L1.45198 36.1719L2.14763 35.4535L3.12612 36.4011L2.43047 37.1195ZM1.45198 35.4535L2.43047 34.506L3.12612 35.2244L2.14763 36.1719L1.45198 35.4535ZM4.38745 32.6109L6.34443 30.7158L7.04008 31.4342L5.0831 33.3293L4.38745 32.6109ZM8.30141 28.8207L10.2584 26.9256L10.954 27.644L8.99706 29.5391L8.30141 28.8207ZM12.2154 25.0306L13.1939 24.083L13.8895 24.8014L12.911 25.7489L12.2154 25.0306ZM13.1939 24.8014L12.2154 23.8538L12.911 23.1355L13.8895 24.083L13.1939 24.8014ZM10.2584 21.9588L8.30141 20.0637L8.99706 19.3453L10.954 21.2404L10.2584 21.9588ZM6.34443 18.1686L4.38745 16.2735L5.0831 15.5551L7.04008 17.4502L6.34443 18.1686ZM2.43047 14.3784L1.45198 13.4309L2.14763 12.7125L3.12612 13.66L2.43047 14.3784ZM1.45198 12.7125L2.43047 11.765L3.12612 12.4833L2.14763 13.4309L1.45198 12.7125ZM4.38745 9.86987L6.34443 7.97479L7.04008 8.69316L5.0831 10.5882L4.38745 9.86987ZM8.30141 6.0797L10.2584 4.18461L10.954 4.90299L8.99706 6.79807L8.30141 6.0797ZM12.2154 2.28953L13.1939 1.34198L13.8895 2.06036L12.911 3.0079L12.2154 2.28953ZM13.5417 1.70117L12.846 0.982796L13.1369 0.701172L13.5417 0.701172L13.5417 1.70117ZM1.7998 13.0717L1.10415 13.7901L0.362311 13.0717L1.10415 12.3533L1.7998 13.0717ZM511.799 1.70129L511.799 0.701294L512.799 0.701294V1.70129H511.799ZM511.799 115.406H512.799V116.406H511.799V115.406ZM13.5417 115.406V116.406H13.1369L12.846 116.125L13.5417 115.406ZM1.7998 104.036L1.10415 104.754L0.362312 104.036L1.10415 103.317L1.7998 104.036ZM13.5417 92.6653L14.2373 91.9469L14.9792 92.6653L14.2373 93.3837L13.5417 92.6653ZM1.7998 81.2948L1.10415 82.0132L0.362311 81.2948L1.10415 80.5764L1.7998 81.2948ZM13.5417 69.9243L14.2373 69.2059L14.9792 69.9243L14.2373 70.6427L13.5417 69.9243ZM1.7998 58.5538L1.10415 59.2721L0.362311 58.5538L1.10415 57.8354L1.7998 58.5538ZM13.5417 47.1832L14.2373 46.4649L14.9792 47.1832L14.2373 47.9016L13.5417 47.1832ZM1.7998 35.8127L1.10415 36.5311L0.362311 35.8127L1.10415 35.0943L1.7998 35.8127ZM13.5417 24.4422L14.2373 23.7238L14.9792 24.4422L14.2373 25.1606L13.5417 24.4422ZM13.5417 0.701172L15.0425 0.701172L15.0425 2.70117L13.5417 2.70117L13.5417 0.701172ZM18.044 0.701173L21.0456 0.701174L21.0456 2.70117L18.044 2.70117L18.044 0.701173ZM24.0471 0.701174L27.0487 0.701175L27.0487 2.70118L24.0471 2.70117L24.0471 0.701174ZM30.0502 0.701176L33.0518 0.701177L33.0518 2.70118L30.0502 2.70118L30.0502 0.701176ZM36.0533 0.701177L39.0549 0.701178L39.0549 2.70118L36.0533 2.70118L36.0533 0.701177ZM42.0564 0.701179L45.058 0.70118L45.058 2.70118L42.0564 2.70118L42.0564 0.701179ZM48.0595 0.70118L51.0611 0.701181L51.0611 2.70118L48.0595 2.70118L48.0595 0.70118ZM54.0626 0.701182L57.0642 0.701183L57.0642 2.70118L54.0626 2.70118L54.0626 0.701182ZM60.0657 0.701183L63.0673 0.701184L63.0673 2.70118L60.0657 2.70118L60.0657 0.701183ZM66.0689 0.701185L69.0704 0.701185L69.0704 2.70119L66.0689 2.70118L66.0689 0.701185ZM72.072 0.701186L75.0735 0.701187L75.0735 2.70119L72.072 2.70119L72.072 0.701186ZM78.0751 0.701188L81.0766 0.701188L81.0766 2.70119L78.0751 2.70119L78.0751 0.701188ZM84.0782 0.701189L87.0797 0.70119L87.0797 2.70119L84.0782 2.70119L84.0782 0.701189ZM90.0812 0.701191L93.0828 0.701191L93.0828 2.70119L90.0812 2.70119L90.0812 0.701191ZM96.0843 0.701192L99.0859 0.701193L99.0859 2.70119L96.0843 2.70119L96.0843 0.701192ZM102.087 0.701194L105.089 0.701194L105.089 2.70119L102.087 2.70119L102.087 0.701194ZM108.091 0.701195L111.092 0.701196L111.092 2.7012L108.091 2.7012L108.091 0.701195ZM114.094 0.701197L117.095 0.701197L117.095 2.7012L114.094 2.7012L114.094 0.701197ZM120.097 0.701198L123.098 0.701199L123.098 2.7012L120.097 2.7012L120.097 0.701198ZM126.1 0.701199L129.101 0.7012L129.101 2.7012L126.1 2.7012L126.1 0.701199ZM132.103 0.701201L135.104 0.701202L135.104 2.7012L132.103 2.7012L132.103 0.701201ZM138.106 0.701202L141.108 0.701203L141.108 2.7012L138.106 2.7012L138.106 0.701202ZM144.109 0.701204L147.111 0.701205L147.111 2.7012L144.109 2.7012L144.109 0.701204ZM150.112 0.701205L153.114 0.701206L153.114 2.70121L150.112 2.70121L150.112 0.701205ZM156.115 0.701207L159.117 0.701208L159.117 2.70121L156.115 2.70121L156.115 0.701207ZM162.118 0.701208L165.12 0.701209L165.12 2.70121L162.118 2.70121L162.118 0.701208ZM168.122 0.70121L171.123 0.70121L171.123 2.70121L168.122 2.70121L168.122 0.70121ZM174.125 0.701211L177.126 0.701212L177.126 2.70121L174.125 2.70121L174.125 0.701211ZM180.128 0.701213L183.129 0.701213L183.129 2.70121L180.128 2.70121L180.128 0.701213ZM186.131 0.701214L189.132 0.701215L189.132 2.70121L186.131 2.70121L186.131 0.701214ZM192.134 0.701216L195.136 0.701216L195.136 2.70122L192.134 2.70122L192.134 0.701216ZM198.137 0.701217L201.139 0.701218L201.139 2.70122L198.137 2.70122L198.137 0.701217ZM204.14 0.701219L207.142 0.701219L207.142 2.70122L204.14 2.70122L204.14 0.701219ZM210.143 0.70122L213.145 0.701221L213.145 2.70122L210.143 2.70122L210.143 0.70122ZM216.146 0.701222L219.148 0.701222L219.148 2.70122L216.146 2.70122L216.146 0.701222ZM222.15 0.701223L225.151 0.701224L225.151 2.70122L222.15 2.70122L222.15 0.701223ZM228.153 0.701224L231.154 0.701225L231.154 2.70123L228.153 2.70122L228.153 0.701224ZM234.156 0.701226L237.157 0.701227L237.157 2.70123L234.156 2.70123L234.156 0.701226ZM240.159 0.701227L243.16 0.701228L243.16 2.70123L240.159 2.70123L240.159 0.701227ZM246.162 0.701229L249.164 0.70123L249.164 2.70123L246.162 2.70123L246.162 0.701229ZM252.165 0.70123L255.167 0.701231L255.167 2.70123L252.165 2.70123L252.165 0.70123ZM258.168 0.701232L261.17 0.701233L261.17 2.70123L258.168 2.70123L258.168 0.701232ZM264.171 0.701233L267.173 0.701234L267.173 2.70123L264.171 2.70123L264.171 0.701233ZM270.175 0.701235L273.176 0.701235L273.176 2.70124L270.175 2.70123L270.175 0.701235ZM276.178 0.701236L279.179 0.701237L279.179 2.70124L276.178 2.70124L276.178 0.701236ZM282.181 0.701238L285.182 0.701238L285.182 2.70124L282.181 2.70124L282.181 0.701238ZM288.184 0.701239L291.185 0.70124L291.185 2.70124L288.184 2.70124L288.184 0.701239ZM294.187 0.701241L297.188 0.701241L297.188 2.70124L294.187 2.70124L294.187 0.701241ZM300.19 0.701242L303.192 0.701243L303.192 2.70124L300.19 2.70124L300.19 0.701242ZM306.193 0.701244L309.195 0.701244L309.195 2.70124L306.193 2.70124L306.193 0.701244ZM312.196 0.701245L315.198 0.701246L315.198 2.70125L312.196 2.70125L312.196 0.701245ZM318.199 0.701247L321.201 0.701247L321.201 2.70125L318.199 2.70125L318.199 0.701247ZM324.203 0.701248L327.204 0.701249L327.204 2.70125L324.203 2.70125L324.203 0.701248ZM330.206 0.701249L333.207 0.70125L333.207 2.70125L330.206 2.70125L330.206 0.701249ZM336.209 0.701251L339.21 0.701252L339.21 2.70125L336.209 2.70125L336.209 0.701251ZM342.212 0.701252L345.213 0.701253L345.213 2.70125L342.212 2.70125L342.212 0.701252ZM348.215 0.701254L351.217 0.701255L351.217 2.70125L348.215 2.70125L348.215 0.701254ZM354.218 0.701255L357.22 0.701256L357.22 2.70126L354.218 2.70126L354.218 0.701255ZM360.221 0.701257L363.223 0.701258L363.223 2.70126L360.221 2.70126L360.221 0.701257ZM366.224 0.701258L369.226 0.701259L369.226 2.70126L366.224 2.70126L366.224 0.701258ZM372.227 0.70126L375.229 0.70126L375.229 2.70126L372.227 2.70126L372.227 0.70126ZM378.231 0.701261L381.232 0.701262L381.232 2.70126L378.231 2.70126L378.231 0.701261ZM384.234 0.701263L387.235 0.701263L387.235 2.70126L384.234 2.70126L384.234 0.701263ZM390.237 0.701264L393.238 0.701265L393.238 2.70126L390.237 2.70126L390.237 0.701264ZM396.24 0.701266L399.241 0.701266L399.241 2.70127L396.24 2.70127L396.24 0.701266ZM402.243 0.701267L405.245 0.701268L405.245 2.70127L402.243 2.70127L402.243 0.701267ZM408.246 0.701269L411.248 0.701269L411.248 2.70127L408.246 2.70127L408.246 0.701269ZM414.249 0.70127L417.251 0.701271L417.251 2.70127L414.249 2.70127L414.249 0.70127ZM420.252 0.701272L423.254 0.701272L423.254 2.70127L420.252 2.70127L420.252 0.701272ZM426.255 0.701273L429.257 0.701274L429.257 2.70127L426.255 2.70127L426.255 0.701273ZM432.259 0.701274L435.26 0.701275L435.26 2.70128L432.259 2.70127L432.259 0.701274ZM438.262 0.701276L441.263 0.701277L441.263 2.70128L438.262 2.70128L438.262 0.701276ZM444.265 0.701277L447.266 0.701278L447.266 2.70128L444.265 2.70128L444.265 0.701277ZM450.268 0.701279L453.269 0.70128L453.269 2.70128L450.268 2.70128L450.268 0.701279ZM456.271 0.70128L459.273 0.701281L459.273 2.70128L456.271 2.70128L456.271 0.70128ZM462.274 0.701282L465.276 0.701283L465.276 2.70128L462.274 2.70128L462.274 0.701282ZM468.277 0.701283L471.279 0.701284L471.279 2.70128L468.277 2.70128L468.277 0.701283ZM474.28 0.701285L477.282 0.701285L477.282 2.70129L474.28 2.70128L474.28 0.701285ZM480.283 0.701286L483.285 0.701287L483.285 2.70129L480.283 2.70129L480.283 0.701286ZM486.287 0.701288L489.288 0.701288L489.288 2.70129L486.287 2.70129L486.287 0.701288ZM492.29 0.701289L495.291 0.70129L495.291 2.70129L492.29 2.70129L492.29 0.701289ZM498.293 0.701291L501.294 0.701291L501.294 2.70129L498.293 2.70129L498.293 0.701291ZM504.296 0.701292L507.297 0.701293L507.297 2.70129L504.296 2.70129L504.296 0.701292ZM510.299 0.701294L511.799 0.701294L511.799 2.70129L510.299 2.70129L510.299 0.701294ZM512.799 1.70129V3.19741H510.799V1.70129H512.799ZM512.799 6.18965V9.18189H510.799V6.18965H512.799ZM512.799 12.1741V15.1664H510.799V12.1741H512.799ZM512.799 18.1586V21.1508H510.799V18.1586H512.799ZM512.799 24.1431V27.1353H510.799V24.1431H512.799ZM512.799 30.1276V33.1198H510.799V30.1276H512.799ZM512.799 36.112V39.1043H510.799V36.112H512.799ZM512.799 42.0965V45.0887H510.799V42.0965H512.799ZM512.799 48.081V51.0732H510.799V48.081H512.799ZM512.799 54.0655V57.0577H510.799V54.0655H512.799ZM512.799 60.0499V63.0422H510.799V60.0499H512.799ZM512.799 66.0344V69.0266H510.799V66.0344H512.799ZM512.799 72.0189V75.0111H510.799V72.0189H512.799ZM512.799 78.0034V80.9956H510.799V78.0034H512.799ZM512.799 83.9879V86.9801H510.799V83.9879H512.799ZM512.799 89.9723V92.9646H510.799V89.9723H512.799ZM512.799 95.9568V98.9491H510.799V95.9568H512.799ZM512.799 101.941V104.934H510.799V101.941H512.799ZM512.799 107.926V110.918H510.799V107.926H512.799ZM512.799 113.91V115.406H510.799V113.91H512.799ZM511.799 116.406H510.299V114.406H511.799V116.406ZM507.297 116.406H504.295V114.406H507.297V116.406ZM501.294 116.406H498.292V114.406H501.294V116.406ZM495.291 116.406H492.289V114.406H495.291V116.406ZM489.288 116.406H486.286V114.406H489.288V116.406ZM483.285 116.406H480.283V114.406H483.285V116.406ZM477.281 116.406H474.28V114.406H477.281V116.406ZM471.278 116.406H468.277V114.406H471.278V116.406ZM465.275 116.406H462.274V114.406H465.275V116.406ZM459.272 116.406H456.271V114.406H459.272V116.406ZM453.269 116.406H450.267V114.406H453.269V116.406ZM447.266 116.406H444.264V114.406H447.266V116.406ZM441.263 116.406H438.261V114.406H441.263V116.406ZM435.26 116.406H432.258V114.406H435.26V116.406ZM429.257 116.406H426.255V114.406H429.257V116.406ZM423.254 116.406H420.252V114.406H423.254V116.406ZM417.25 116.406H414.249V114.406H417.25V116.406ZM411.247 116.406H408.246V114.406H411.247V116.406ZM405.244 116.406H402.243V114.406H405.244V116.406ZM399.241 116.406H396.24V114.406H399.241V116.406ZM393.238 116.406H390.237V114.406H393.238V116.406ZM387.235 116.406H384.233V114.406H387.235V116.406ZM381.232 116.406H378.23V114.406H381.232V116.406ZM375.229 116.406H372.227V114.406H375.229V116.406ZM369.226 116.406H366.224V114.406H369.226V116.406ZM363.223 116.406H360.221V114.406H363.223V116.406ZM357.219 116.406H354.218V114.406H357.219V116.406ZM351.216 116.406H348.215V114.406H351.216V116.406ZM345.213 116.406H342.212V114.406H345.213V116.406ZM339.21 116.406H336.209V114.406H339.21V116.406ZM333.207 116.406H330.205V114.406H333.207V116.406ZM327.204 116.406H324.202V114.406H327.204V116.406ZM321.201 116.406H318.199V114.406H321.201V116.406ZM315.198 116.406H312.196V114.406H315.198V116.406ZM309.195 116.406H306.193V114.406H309.195V116.406ZM303.191 116.406H300.19V114.406H303.191V116.406ZM297.188 116.406H294.187V114.406H297.188V116.406ZM291.185 116.406H288.184V114.406H291.185V116.406ZM285.182 116.406H282.181V114.406H285.182V116.406ZM279.179 116.406H276.177V114.406H279.179V116.406ZM273.176 116.406H270.174V114.406H273.176V116.406ZM267.173 116.406H264.171V114.406H267.173V116.406ZM261.17 116.406H258.168V114.406H261.17V116.406ZM255.167 116.406H252.165V114.406H255.167V116.406ZM249.163 116.406H246.162V114.406H249.163V116.406ZM243.16 116.406H240.159V114.406H243.16V116.406ZM237.157 116.406H234.156V114.406H237.157V116.406ZM231.154 116.406H228.153V114.406H231.154V116.406ZM225.151 116.406H222.149V114.406H225.151V116.406ZM219.148 116.406H216.146V114.406H219.148V116.406ZM213.145 116.406H210.143V114.406H213.145V116.406ZM207.142 116.406H204.14V114.406H207.142V116.406ZM201.138 116.406H198.137V114.406H201.138V116.406ZM195.135 116.406H192.134V114.406H195.135V116.406ZM189.132 116.406H186.131V114.406H189.132V116.406ZM183.129 116.406H180.128V114.406H183.129V116.406ZM177.126 116.406H174.124V114.406H177.126V116.406ZM171.123 116.406H168.121V114.406H171.123V116.406ZM165.12 116.406H162.118V114.406H165.12V116.406ZM159.117 116.406H156.115V114.406H159.117V116.406ZM153.114 116.406H150.112V114.406H153.114V116.406ZM147.11 116.406H144.109V114.406H147.11V116.406ZM141.107 116.406H138.106V114.406H141.107V116.406ZM135.104 116.406H132.103V114.406H135.104V116.406ZM129.101 116.406H126.1V114.406H129.101V116.406ZM123.098 116.406H120.096V114.406H123.098V116.406ZM117.095 116.406H114.093V114.406H117.095V116.406ZM111.092 116.406H108.09V114.406H111.092V116.406ZM105.089 116.406H102.087V114.406H105.089V116.406ZM99.0856 116.406H96.084V114.406H99.0856V116.406ZM93.0825 116.406H90.0809V114.406H93.0825V116.406ZM87.0793 116.406H84.0778V114.406H87.0793V116.406ZM81.0762 116.406H78.0747V114.406H81.0762V116.406ZM75.0731 116.406H72.0716V114.406H75.0731V116.406ZM69.07 116.406H66.0684V114.406H69.07V116.406ZM63.0669 116.406H60.0653V114.406H63.0669V116.406ZM57.0638 116.406H54.0622V114.406H57.0638V116.406ZM51.0607 116.406H48.0591V114.406H51.0607V116.406ZM45.0576 116.406H42.056V114.406H45.0576V116.406ZM39.0545 116.406H36.0529V114.406H39.0545V116.406ZM33.0513 116.406H30.0498V114.406H33.0513V116.406ZM27.0482 116.406H24.0467V114.406H27.0482V116.406ZM21.0451 116.406H18.0436V114.406H21.0451V116.406ZM15.042 116.406H13.5417V114.406H15.042V116.406ZM12.846 116.125L11.8675 115.177L13.2589 113.74L14.2373 114.688L12.846 116.125ZM9.91056 113.282L7.95358 111.387L9.34489 109.95L11.3019 111.845L9.91056 113.282ZM5.9966 109.492L4.03962 107.597L5.43093 106.16L7.38791 108.055L5.9966 109.492ZM2.08264 105.702L1.10415 104.754L2.49546 103.317L3.47395 104.265L2.08264 105.702ZM1.10415 103.317L2.08264 102.37L3.47395 103.807L2.49546 104.754L1.10415 103.317ZM4.03962 100.475L5.9966 98.5797L7.38791 100.016L5.43093 101.912L4.03962 100.475ZM7.95358 96.6847L9.91056 94.7896L11.3019 96.2263L9.34489 98.1214L7.95358 96.6847ZM11.8675 92.8945L12.846 91.9469L14.2373 93.3837L13.2589 94.3312L11.8675 92.8945ZM12.846 93.3837L11.8675 92.4361L13.2589 90.9994L14.2373 91.9469L12.846 93.3837ZM9.91056 90.5411L7.95358 88.646L9.34489 87.2092L11.3019 89.1043L9.91056 90.5411ZM5.9966 86.7509L4.03962 84.8558L5.43093 83.4191L7.38791 85.3141L5.9966 86.7509ZM2.08264 82.9607L1.10415 82.0132L2.49546 80.5764L3.47395 81.524L2.08264 82.9607ZM1.10415 80.5764L2.08264 79.6289L3.47395 81.0656L2.49546 82.0132L1.10415 80.5764ZM4.03962 77.7338L5.9966 75.8387L7.38791 77.2755L5.43093 79.1705L4.03962 77.7338ZM7.95358 73.9436L9.91056 72.0485L11.3019 73.4853L9.34489 75.3804L7.95358 73.9436ZM11.8675 70.1534L12.846 69.2059L14.2373 70.6427L13.2589 71.5902L11.8675 70.1534ZM12.846 70.6427L11.8675 69.6951L13.2589 68.2584L14.2373 69.2059L12.846 70.6427ZM9.91056 67.8L7.95358 65.9049L9.34489 64.4682L11.3019 66.3633L9.91056 67.8ZM5.9966 64.0099L4.03962 62.1148L5.43093 60.678L7.38791 62.5731L5.9966 64.0099ZM2.08264 60.2197L1.10415 59.2721L2.49546 57.8354L3.47395 58.7829L2.08264 60.2197ZM1.10415 57.8354L2.08264 56.8878L3.47395 58.3246L2.49546 59.2721L1.10415 57.8354ZM4.03962 54.9928L5.9966 53.0977L7.38791 54.5344L5.43093 56.4295L4.03962 54.9928ZM7.95358 51.2026L9.91056 49.3075L11.3019 50.7442L9.34489 52.6393L7.95358 51.2026ZM11.8675 47.4124L12.846 46.4649L14.2373 47.9016L13.2589 48.8492L11.8675 47.4124ZM12.846 47.9016L11.8675 46.9541L13.2589 45.5173L14.2373 46.4649L12.846 47.9016ZM9.91056 45.059L7.95358 43.1639L9.34489 41.7271L11.3019 43.6222L9.91056 45.059ZM5.9966 41.2688L4.03962 39.3737L5.43093 37.937L7.38791 39.8321L5.9966 41.2688ZM2.08264 37.4786L1.10415 36.5311L2.49546 35.0943L3.47395 36.0419L2.08264 37.4786ZM1.10415 35.0943L2.08264 34.1468L3.47395 35.5836L2.49546 36.5311L1.10415 35.0943ZM4.03962 32.2517L5.9966 30.3566L7.38791 31.7934L5.43093 33.6885L4.03962 32.2517ZM7.95358 28.4615L9.91056 26.5665L11.3019 28.0032L9.34489 29.8983L7.95358 28.4615ZM11.8675 24.6714L12.846 23.7238L14.2373 25.1606L13.2589 26.1081L11.8675 24.6714ZM12.846 25.1606L11.8675 24.213L13.2589 22.7763L14.2373 23.7238L12.846 25.1606ZM9.91056 22.3179L7.95358 20.4229L9.34489 18.9861L11.3019 20.8812L9.91056 22.3179ZM5.9966 18.5278L4.03962 16.6327L5.43093 15.1959L7.38791 17.091L5.9966 18.5278ZM2.08264 14.7376L1.10415 13.7901L2.49546 12.3533L3.47395 13.3009L2.08264 14.7376ZM1.10415 12.3533L2.08264 11.4058L3.47395 12.8425L2.49546 13.7901L1.10415 12.3533ZM4.03962 9.51068L5.9966 7.6156L7.38791 9.05235L5.43093 10.9474L4.03962 9.51068ZM7.95358 5.72051L9.91056 3.82543L11.3019 5.26218L9.34489 7.15726L7.95358 5.72051ZM11.8675 1.93034L12.846 0.982796L14.2373 2.41955L13.2589 3.36709L11.8675 1.93034Z" fill="#200952" fill-opacity="0.15" mask="url(#path-1-outside-1_89_11)"></path> </svg> 